<svg id="Layer_1" xmlns="http://www.w3.org/2000/svg" viewBox="0 0 148.9 36.4"><style>.st0{fill:#010101}</style><path class="st0" d="M36.4 19.7h-.3l-.2-.1s-.1 0-.1-.1l-.1-.1s-.1 0-.1-.1l-5.1-6.7-.7-.3h-3.1l-.5.5V19c0 .1-.1.3-.1.3l-.1.3c-.1.1-.2.1-.3.1h-2.2c-.1 0-.3-.1-.3-.1l-.2-.2c-.1-.1-.1-.2-.1-.3v-18c0-.1.1-.3.1-.3l.2-.2c.1-.1.2-.1.3-.1h9.1c2.1 0 3.7.5 5 1.5 1.2 1 1.8 2.5 1.8 4.4 0 1.5-.4 2.7-1.2 3.7-.8 1-1.8 1.6-3 1.9h-.3v.6l3 4 .1.1V19c0 .1-.1.3-.1.3l-.2.2c-.1.1-.2.1-.3.1h-1zM32.5 9.3c1 0 1.8-.2 2.4-.6.6-.4.9-1.2.9-2.3 0-1.1-.3-1.8-.9-2.3-.5-.4-1.3-.6-2.4-.6h-5.7l-.5.5v4.9l.5.5h5.7zM1.8 19.7c-.1 0-.3-.1-.3-.1l-.2-.2c-.1-.1-.1-.2-.1-.3v-18c0-.1.1-.3.1-.3l.2-.2c.1-.1.2-.1.3-.1h9.1c2.1 0 3.7.5 5 1.5 1.2 1 1.8 2.5 1.8 4.4 0 1.9-.6 3.4-1.8 4.4-1.2 1-2.9 1.5-5 1.5H5.1l-.5.5V19c0 .1-.1.3-.1.3l-.2.2c-.1.1-.2.1-.3.1H1.8zm9-10.4c1 0 1.8-.2 2.4-.6.5-.5.8-1.3.8-2.3 0-1.1-.3-1.8-.9-2.3-.5-.4-1.3-.6-2.4-.6H5.1l-.5.4v4.9l.5.5h5.7zm33.9 10.4h3l.3-.2V.7l-.3-.3h-3l-.3.3v18.8zM73.2 3.2h5.7c.1 0 .1.1.2.1l.9.8c0 .1.1.1.1.2v15.1l.3.3h3l.3-.3V4.3c0-.1.1-.1.1-.2l.8-.8c.1 0 .1-.1.2-.1h5.7l.3-.3V.7l-.3-.3H73.2l-.3.3v2.2l.3.3M96 19.7h3.1l.2-.2V.7l-.2-.3H96l-.2.3v18.8zm22.6-7.3H117c-.1-.1-.2-.1-.3-.1L109.6.6l-.3-.1H105l-.3.3v18.7l.3.3h3l.3-.3V7.9l.3-.3h1.6c.1.1.2.1.3.1l7.1 11.7.3.1h4.5l.3-.3V.6l-.3-.3h-3l-.3.3v11.5l-.5.3zm13.2-9.2h12.7l.3-.3V.7l-.3-.3h-17.1l-.3.3v18.7l.3.3h17.1l.3-.3v-2.2l-.3-.3h-12.7c-.1 0-.1-.1-.2-.1l-.8-.8c0-.1-.1-.1-.1-.2v-3.6c0-.1.1-.1.1-.2l.8-.8c.1 0 .1-.1.2-.1h11.9l.3-.3V8.6l-.3-.3h-11.9c-.1 0-.1-.1-.2-.1l-.8-.8c0-.1-.1-.1-.1-.2V4.3c0-.1.1-.1.1-.2l.8-.8c.1 0 .2-.1.2-.1M62.4 8.4c-2.1-.3-3.6-.6-4.3-1-.8-.4-1.3-1.2-1.3-2.2 0-1.6 1.3-2.3 3.9-2.3 1.6 0 2.8.2 3.4.7.6.4.9.9 1 1.7 0 .1.1.2.1.2l.2.2c.1.1.2.1.3.1H68c.1 0 .2 0 .3-.1l.2-.2c.1-.1.1-.2.1-.3-.1-1.4-.7-2.5-1.8-3.4C65.6.8 63.6.2 61 .2c-2.5 0-4.5.5-5.7 1.5-1.3 1-1.9 2.2-1.9 3.6 0 .9.2 1.7.5 2.4s.8 1.2 1.5 1.6c.7.4 1.4.8 2.2 1 .8.3 1.8.5 2.8.6 2.1.3 3.6.7 4.4 1.1.8.5 1.2 1.3 1.2 2.4 0 1.9-1.5 2.9-4.5 2.9-1.8 0-3.1-.3-3.8-.9-.7-.5-1.1-1.2-1.2-2.1 0-.1-.1-.2-.1-.2l-.2-.1c-.1-.1-.2-.1-.3-.1h-2.2c-.1 0-.2 0-.3.1l-.2.2c-.1.1-.1.2-.1.3.2 1.6.8 2.8 2 3.8 1.4 1.1 3.4 1.7 6.2 1.7 2.8 0 4.9-.5 6.2-1.6 1.3-1.1 2-2.4 2-4 0-3.3-2.4-5.3-7.1-6m-6.5 26.7c-.4.4-1 .5-1.6.5-.5 0-1.1-.1-1.5-.4-.2-.2-.3-.4-.4-.5-.1-.3-.2-.6-.2-.8v-4.1c0-.2 0-.9.5-1.3.3-.2.8-.5 1.6-.5 1 0 1.6.4 1.8.9.1.2.2.5.2 1v4c0 .4-.1.9-.4 1.2m-1-5.2s0-.4-.1-.6c-.1-.1-.2-.3-.6-.3-.1 0-.3 0-.4.1-.3.2-.3.5-.3.8v3.7c0 .2 0 .5.1.7.2.2.5.2.5.2.1 0 .3 0 .4-.1.2-.2.2-.5.2-.7v-3.8zm6.4 5.4l-.9-2.9c0-.1-.2-.2-.3-.2-.2 0-.3.1-.3.3v2.8l-.1.1h-1.1l-.1-.1v-7l.1-.1h2.6c.7 0 1.3.6 1.3 1.3v1.3c0 .7-.2 1-.8 1.2 0 .1 0 .1-.1.1l1.1 3.2c0 .1-.1.1-.1.1l-1.3-.1c.1.1 0 .1 0 0m-.2-5.5c0-.5-.2-.6-.6-.6h-.6l-.1.1V31l.1.1h.6c.5 0 .6-.2.6-.7v-.6zm3.5 5.5v-7l.1-.1h1.1l.1.1v7l-.1.1h-1.1l-.1-.1m6.4.1V35c-.1.2-.2.2-.3.3-.4.3-.8.3-1 .3-.9 0-1.3-.5-1.5-.8-.1-.2-.1-.4-.1-.6V30c0-.3 0-.7.1-1 .3-.8 1.2-1 1.9-1 .6 0 1.4.1 1.7.7.2.3.2.7.2.8v1l-.1.1h-1.1l-.1-.1v-.6c0-.2 0-.5-.2-.6-.1 0-.2-.1-.4-.1-.1 0-.3 0-.4.1-.2.1-.3.4-.3.8v3.8s0 .2.1.4.2.3.6.3c.1 0 .3 0 .5-.2s.2-.4.2-.6v-1l-.1-.1h-.6l-.1-.1v-.9l.1-.1H72l.1.1v3.7l-.1.1h-1zm3.3-.1v-7l.1-.1h1.1l.1.1v7l-.1.1h-1.1l-.1-.1zm6 0l-1-4.4h-.2l.1 4.3-.1.1h-1l-.1-.1v-7l.1-.1h1.5s.1 0 .1.1l1.1 4.3h.2l-.1-4.3.1-.1h1l.1.1v7l-.1.1h-1.5c-.1.1-.1.1-.2 0m6.5 0l-.1-1-.1-.1h-1.1l-.1.1-.2 1-.1.1H84c0-.1-.1-.1-.1-.1l1.4-7 .1-.1h1.4l.1.1 1.3 7c0 .1-.1.1-.1.1H87c-.1 0-.2 0-.2-.1m-.9-4.6l-.3 2.3.1.1h.7l.1-.1-.3-2.3h-.3m4.1 4.6v-7l.1-.1h1.1l.1.1v5.9l.1.1h1.8l.1.1v.9l-.1.1h-3.1s-.1 0-.1-.1"/></svg>